<?xml version="1.0" standalone="no"?>
<!DOCTYPE svg PUBLIC "-//W3C//DTD SVG 20010904//EN"
 "http://www.w3.org/TR/2001/REC-SVG-20010904/DTD/svg10.dtd">
<svg version="1.0" xmlns="http://www.w3.org/2000/svg"
 width="1000.000000pt" height="1000.000000pt" viewBox="0 0 1000.000000 1000.000000"
 preserveAspectRatio="xMidYMid meet">
<metadata>
Created by potrace 1.14, written by Peter Selinger 2001-2017
</metadata>
<g transform="translate(0.000000,1000.000000) scale(0.100000,-0.100000)"
fill="#000000" stroke="none">
<path d="M846 9423 c-3 -3 -124 -7 -268 -9 -222 -3 -415 -9 -540 -16 -28 -2
-40 -30 -18 -43 6 -4 8 -11 5 -16 -4 -5 -1 -9 4 -9 6 0 10 -3 9 -7 -1 -5 14
-43 35 -86 20 -44 37 -83 37 -87 0 -5 5 -10 11 -12 5 -2 11 -10 13 -18 1 -8 8
-25 14 -37 7 -13 9 -23 5 -23 -4 0 -3 -4 2 -8 9 -6 59 -98 61 -111 1 -13 40
-86 47 -89 4 -2 7 -8 7 -13 0 -25 51 -119 70 -129 11 -6 20 -7 20 -3 0 4 103
7 228 5 l228 -3 24 -47 c13 -26 24 -49 25 -52 1 -9 150 -305 155 -310 3 -3 16
-30 30 -60 14 -30 27 -57 30 -60 3 -3 41 -77 84 -165 44 -88 84 -163 89 -166
5 -3 8 -10 7 -15 -1 -12 273 -558 283 -562 4 -2 5 -7 2 -12 -3 -5 1 -14 8 -22
15 -15 16 -15 23 -45 4 -13 11 -23 16 -23 5 0 7 -4 3 -9 -3 -5 3 -17 12 -27
10 -10 17 -19 16 -21 -4 -8 11 -43 19 -43 5 0 6 -4 3 -10 -3 -5 -1 -10 4 -10
6 0 10 -3 9 -7 -1 -5 3 -18 10 -30 7 -13 9 -23 5 -23 -4 0 0 -6 8 -12 8 -7 28
-42 44 -78 16 -36 34 -72 41 -80 6 -8 20 -36 30 -62 10 -27 22 -48 27 -48 4 0
7 -7 7 -16 0 -9 9 -27 20 -41 11 -14 18 -29 15 -33 -3 -4 2 -13 10 -20 8 -7
15 -21 15 -30 0 -10 3 -20 8 -22 7 -3 86 -158 87 -170 0 -4 6 -13 13 -20 6 -6
12 -20 12 -29 0 -10 3 -19 8 -21 9 -4 162 -309 162 -324 0 -7 7 -14 15 -18 8
-3 14 -9 13 -13 -3 -10 143 -305 155 -314 5 -3 9 -9 9 -12 0 -19 12 -47 19
-47 5 0 8 -3 7 -7 -1 -5 61 -134 139 -288 77 -154 213 -423 301 -597 87 -175
157 -320 154 -323 -3 -3 -1 -5 5 -5 6 0 18 -20 27 -45 10 -25 22 -45 27 -45 5
0 8 -3 7 -7 -4 -14 13 -53 23 -53 5 0 9 -9 9 -20 0 -11 4 -20 10 -20 5 0 9 -3
8 -7 -4 -10 224 -467 235 -471 4 -2 5 -8 1 -13 -3 -5 0 -9 5 -9 6 0 11 -3 10
-7 -2 -16 14 -53 22 -53 5 0 9 -6 9 -12 0 -15 54 -124 71 -145 6 -7 8 -13 4
-13 -5 0 -2 -8 6 -17 8 -10 32 -56 54 -103 22 -47 43 -87 48 -88 4 -2 5 -8 1
-13 -3 -5 0 -9 5 -9 6 0 11 -9 11 -20 0 -11 4 -20 9 -20 5 0 15 -17 22 -37 6
-21 18 -44 26 -51 7 -7 13 -20 13 -28 0 -9 7 -22 15 -31 8 -8 13 -19 10 -24
-4 -5 -2 -9 3 -9 9 0 25 -37 23 -52 -1 -5 3 -8 8 -8 7 0 19 -28 19 -47 0 -3 4
-9 9 -12 4 -3 57 -105 118 -226 60 -121 114 -223 120 -227 5 -4 7 -8 4 -8 -4
0 8 -30 27 -66 19 -37 34 -73 34 -81 0 -8 4 -11 10 -8 5 3 10 0 10 -7 0 -16
222 -462 232 -466 5 -2 8 -10 8 -17 0 -15 41 -97 53 -106 5 -3 8 -8 6 -10 -4
-6 65 -143 74 -147 4 -2 7 -8 7 -14 0 -14 63 -142 73 -146 4 -2 7 -10 7 -18 0
-14 20 -54 31 -64 3 -3 12 -22 18 -43 7 -20 17 -37 22 -37 5 0 9 -5 9 -10 0
-6 35 -81 77 -168 43 -86 76 -160 75 -164 -1 -5 3 -8 9 -8 5 0 7 -4 4 -10 -3
-5 -2 -10 3 -10 9 0 25 -37 23 -53 -1 -4 4 -7 10 -7 5 0 8 -4 5 -9 -4 -5 -2
-11 3 -13 5 -1 11 -10 13 -18 2 -8 9 -21 16 -28 7 -8 10 -18 7 -23 -4 -5 -1
-9 5 -9 6 0 8 -4 5 -10 -3 -5 -2 -10 3 -10 6 0 15 -12 21 -27 29 -78 107 -173
141 -173 17 0 42 21 76 62 5 7 28 49 50 93 21 44 43 83 47 86 5 3 8 9 8 13 -2
9 80 180 89 186 4 3 10 17 13 32 4 15 13 33 20 40 7 7 14 16 15 21 1 4 20 46
42 93 l41 85 -23 47 c-13 26 -27 50 -33 54 -5 4 -6 8 -2 8 5 0 0 15 -11 33
-11 17 -82 156 -158 307 -75 151 -142 278 -148 282 -6 4 -8 8 -4 8 9 0 -52
122 -67 132 -5 4 -7 8 -3 8 3 0 -9 29 -27 64 -22 42 -29 66 -22 68 7 3 75 4
152 3 87 0 143 3 147 10 5 7 8 7 8 0 0 -11 76 -12 86 -2 3 3 16 2 29 -3 14 -5
26 -5 34 3 6 6 11 7 11 1 0 -5 9 -10 20 -10 11 0 20 4 20 9 0 5 6 5 13 -1 8
-7 18 -7 27 -2 8 5 21 5 32 -1 12 -7 18 -6 18 1 0 7 7 8 18 3 20 -10 53 -10
67 -1 6 4 17 3 25 -2 7 -4 24 -4 37 1 15 6 23 5 23 -2 0 -7 5 -8 12 -2 7 5 45
8 85 8 39 0 69 3 67 7 -2 3 0 9 6 13 5 3 10 15 10 26 0 10 4 19 8 19 9 0 42
70 42 88 0 7 4 12 8 12 5 0 19 24 32 52 13 29 28 56 33 59 5 3 8 8 7 10 -2 6
13 43 19 49 8 7 101 199 98 203 -1 1 8 16 19 32 12 17 29 49 39 73 11 23 22
42 27 42 4 0 7 3 6 8 -3 10 62 141 73 148 5 3 7 9 4 14 -3 5 0 14 7 22 17 17
92 170 90 181 -1 4 5 10 13 13 8 3 12 10 9 16 -3 5 0 17 8 26 8 9 34 58 59
107 24 50 49 93 54 97 6 4 6 8 2 8 -5 0 1 14 13 30 12 17 18 30 14 30 -4 0 0
8 9 18 8 9 15 19 15 22 0 7 26 64 32 70 9 9 121 235 121 245 0 6 6 17 14 25 7
8 16 25 19 38 4 12 11 22 16 22 4 0 10 10 14 23 3 13 24 56 46 96 22 41 40 80
40 87 0 7 4 15 9 18 4 3 32 54 62 113 29 59 57 111 62 114 5 3 8 9 8 13 -2 10
53 121 62 124 4 2 5 8 1 13 -3 5 0 9 5 9 6 0 11 9 11 20 0 11 5 20 11 20 5 0
7 5 4 10 -3 6 -1 10 5 10 6 0 9 4 6 9 -4 5 -3 11 1 13 9 3 63 114 62 124 0 4
3 10 8 13 4 3 37 65 73 136 36 72 67 132 70 135 3 3 16 30 30 60 13 30 31 63
39 73 8 9 10 17 5 17 -5 0 -4 4 1 8 13 9 115 214 115 231 0 7 5 9 10 6 6 -4
10 5 10 20 0 15 4 24 10 20 6 -3 10 3 10 14 0 11 7 27 16 35 8 9 12 16 8 16
-4 0 0 8 9 18 10 10 14 22 10 25 -3 4 -1 7 5 7 7 0 11 3 10 8 -2 10 75 165 87
174 7 5 7 8 0 8 -6 0 -6 3 0 8 11 7 32 50 33 66 0 5 4 12 9 15 5 3 37 65 73
136 35 72 68 132 72 133 4 2 8 8 8 13 0 11 52 122 60 129 8 6 20 39 17 44 -1
2 6 13 16 23 9 11 14 23 10 26 -3 4 -1 7 5 7 7 0 12 9 12 19 0 11 3 21 7 23 5
2 48 84 98 183 49 99 97 191 106 205 9 14 17 28 18 33 1 7 33 71 104 209 19
37 32 70 29 73 -3 3 0 5 7 5 7 0 10 4 7 9 -3 5 0 14 7 19 7 6 26 41 41 77 16
36 33 65 37 65 5 0 9 6 9 14 0 16 31 78 43 87 5 3 8 8 8 10 -3 10 24 69 31 69
4 0 8 9 8 20 0 11 5 20 11 20 5 0 8 4 4 9 -3 5 0 15 7 23 7 7 28 46 47 86 19
39 39 72 45 72 5 0 6 3 3 6 -3 4 22 61 56 128 34 66 61 124 60 128 -1 3 4 12
12 18 8 7 15 19 15 26 0 8 5 14 12 14 6 0 8 3 5 6 -7 7 31 84 48 96 6 4 7 8 3
8 -3 0 27 66 68 147 40 81 71 149 69 151 -2 3 -81 6 -175 8 -93 1 -174 6 -180
9 -5 3 -10 2 -10 -4 0 -6 -11 -6 -28 -1 -16 4 -36 4 -45 -2 -11 -6 -17 -5 -17
2 0 12 -22 9 -32 -5 -5 -7 -8 -7 -8 0 0 6 -47 9 -123 8 -150 -1 -152 -2 -144
-9 4 -4 -3 -20 -14 -35 -11 -16 -17 -29 -14 -29 3 0 -3 -13 -14 -28 -11 -16
-21 -35 -23 -43 -2 -8 -5 -16 -8 -19 -4 -3 -24 -41 -45 -85 -22 -44 -56 -110
-77 -147 -20 -38 -33 -68 -30 -68 4 0 3 -4 -3 -8 -13 -9 -121 -223 -117 -234
1 -4 -2 -8 -7 -8 -5 0 -17 -20 -28 -45 -10 -25 -21 -45 -25 -45 -5 0 -8 -7 -8
-15 0 -8 -5 -15 -11 -15 -5 0 -7 -5 -3 -11 3 -6 2 -14 -2 -18 -5 -3 -29 -46
-54 -96 -24 -49 -48 -93 -52 -96 -5 -3 -10 -12 -12 -20 -2 -13 -43 -96 -100
-203 -14 -27 -26 -55 -26 -62 0 -8 -4 -14 -8 -14 -5 0 -17 -20 -28 -45 -10
-25 -22 -45 -27 -45 -4 0 -6 -4 -2 -9 3 -5 0 -15 -7 -23 -14 -14 -78 -144 -77
-154 0 -4 -3 -10 -8 -13 -14 -10 -45 -71 -36 -71 4 0 3 -4 -3 -8 -5 -4 -26
-38 -45 -77 -121 -240 -154 -301 -163 -307 -6 -4 -8 -8 -3 -8 9 0 -42 -100
-52 -100 -4 0 -7 -10 -8 -22 -1 -11 -8 -25 -15 -29 -7 -5 -9 -9 -4 -9 5 0 4
-6 -2 -12 -9 -13 -107 -199 -238 -458 -38 -74 -72 -136 -76 -138 -5 -2 -8 -12
-8 -23 0 -10 -5 -19 -10 -19 -6 0 -9 -4 -8 -8 4 -11 -44 -105 -62 -120 -8 -7
-9 -11 -3 -7 7 3 -5 -25 -26 -62 -21 -37 -41 -78 -45 -90 -4 -13 -12 -23 -18
-23 -6 0 -8 -3 -5 -6 7 -7 -21 -64 -36 -75 -5 -3 -8 -9 -8 -12 1 -12 -47 -108
-62 -125 -9 -9 -16 -19 -15 -22 0 -18 -16 -60 -23 -60 -5 0 -9 -6 -9 -14 0 -8
-7 -22 -16 -30 -8 -9 -12 -16 -9 -16 4 0 -3 -15 -14 -33 -11 -19 -18 -37 -14
-40 3 -4 1 -7 -5 -7 -6 0 -16 -16 -23 -35 -7 -19 -17 -35 -21 -35 -4 0 -8 -9
-8 -20 0 -11 -4 -20 -10 -20 -5 0 -10 -9 -10 -19 0 -11 -3 -21 -7 -23 -5 -1
-33 -52 -63 -113 -30 -60 -59 -113 -63 -116 -5 -3 -8 -9 -8 -13 1 -3 -12 -32
-28 -64 -86 -170 -142 -277 -150 -286 -5 -6 -10 -14 -11 -18 -9 -37 -14 -48
-21 -48 -5 0 -9 -9 -9 -20 0 -10 -8 -23 -17 -29 -10 -5 -15 -12 -11 -16 3 -4
-9 -32 -27 -64 -18 -32 -40 -77 -51 -100 -10 -22 -21 -41 -26 -41 -4 0 -7 -3
-7 -7 3 -16 -23 -73 -34 -73 -6 0 -7 -3 -4 -6 4 -4 -3 -20 -14 -35 -11 -16
-17 -29 -13 -29 4 0 -1 -9 -11 -20 -10 -11 -14 -20 -9 -20 5 0 5 -4 -1 -8 -5
-4 -39 -65 -75 -136 -36 -72 -82 -161 -102 -198 -20 -37 -33 -68 -30 -68 4 0
2 -4 -4 -8 -6 -4 -21 -27 -33 -52 -13 -25 -31 -61 -41 -80 -10 -19 -16 -38
-14 -41 2 -3 -6 -15 -16 -27 -11 -12 -20 -26 -20 -31 0 -17 -30 -19 -245 -21
-115 -1 -304 -3 -420 -4 -115 -1 -216 0 -222 2 -7 2 -13 10 -13 17 0 8 -6 20
-13 27 -7 7 -14 17 -14 21 -3 15 -47 102 -55 108 -5 3 -10 16 -11 27 -1 12 -4
22 -7 22 -4 0 -17 24 -30 53 -12 28 -30 60 -39 71 -9 10 -15 20 -13 22 1 2
-31 68 -70 147 -40 78 -75 149 -77 157 -2 8 -6 17 -10 20 -3 3 -35 64 -71 135
-35 72 -68 133 -73 136 -5 3 -7 8 -5 11 4 5 -64 141 -75 149 -5 3 -8 10 -8 15
1 9 -29 74 -39 84 -3 3 -6 12 -8 20 -2 8 -8 17 -13 18 -5 2 -7 8 -3 13 3 5 0
9 -5 9 -6 0 -11 9 -11 20 0 11 -5 20 -11 20 -5 0 -7 5 -4 10 3 6 1 10 -6 10
-7 0 -10 3 -6 6 3 3 -5 24 -19 45 -13 21 -22 39 -18 39 3 0 -3 12 -14 28 -10
15 -25 43 -32 62 -7 19 -20 42 -27 52 -8 9 -15 23 -17 31 -1 8 -7 21 -12 28
-10 13 -25 48 -25 59 0 3 -6 12 -12 20 -20 26 -37 59 -37 74 0 8 -3 16 -7 18
-11 4 -73 130 -73 146 0 6 -4 12 -8 12 -9 0 -52 88 -51 104 0 5 -3 12 -8 15
-5 3 -38 65 -74 136 -35 72 -67 132 -71 133 -5 2 -8 9 -8 16 0 7 -18 45 -39
85 -22 39 -37 71 -34 71 3 0 1 6 -5 13 -6 6 -68 127 -138 267 -70 140 -132
257 -136 258 -4 2 -8 10 -8 17 0 16 -62 139 -72 143 -5 2 -8 9 -8 15 0 16 -82
180 -95 189 -5 4 -6 8 -1 8 5 0 2 8 -8 19 -9 10 -19 29 -21 42 -3 13 -9 25
-15 27 -6 2 -8 8 -4 13 3 5 1 9 -4 9 -6 0 -13 12 -17 28 -3 15 -13 34 -22 44
-8 9 -16 22 -17 30 -3 16 -28 71 -36 78 -11 11 -40 72 -40 86 0 8 -4 14 -10
14 -5 0 -10 9 -10 19 0 11 -3 21 -8 23 -4 2 -40 71 -80 153 -41 83 -78 157
-83 165 -24 40 -67 130 -61 130 4 0 2 4 -4 8 -15 9 -106 192 -97 192 5 0 3 4
-3 8 -12 7 -156 289 -152 296 2 2 -4 12 -13 22 -16 19 -26 41 -27 58 0 5 -4
12 -9 15 -12 9 -108 204 -105 213 1 5 -2 8 -6 8 -5 0 -20 27 -33 59 -13 33
-27 57 -31 55 -4 -3 -8 2 -8 11 0 17 -20 56 -35 67 -5 4 -6 8 -2 8 9 0 -23 61
-38 72 -5 4 -7 8 -3 8 7 0 -84 186 -102 208 -6 6 -8 12 -5 12 3 0 -13 34 -35
76 -22 43 -39 82 -37 88 4 13 32 16 212 19 78 2 146 6 152 10 11 7 116 -187
106 -197 -4 -3 0 -6 7 -6 7 0 10 -3 7 -6 -4 -4 2 -19 13 -34 11 -15 17 -30 13
-34 -3 -3 -1 -6 5 -6 7 0 11 -3 10 -7 -2 -10 64 -146 75 -154 5 -3 9 -10 9
-15 1 -15 31 -78 47 -96 8 -10 11 -18 7 -18 -4 0 9 -29 28 -65 19 -36 32 -65
28 -65 -4 0 -2 -4 3 -8 6 -4 20 -27 32 -52 11 -25 60 -123 107 -217 47 -95 82
-173 78 -173 -4 0 -2 -4 3 -8 13 -8 89 -164 87 -174 -1 -5 3 -8 9 -8 5 0 8 -4
5 -9 -4 -5 -3 -11 1 -13 5 -1 26 -41 47 -88 22 -47 43 -86 48 -88 4 -2 8 -10
8 -17 0 -17 71 -157 85 -167 6 -4 6 -8 2 -8 -4 0 4 -20 18 -45 14 -25 25 -52
25 -60 0 -7 3 -15 8 -17 4 -1 23 -37 42 -78 19 -41 38 -76 43 -78 4 -2 7 -12
7 -23 0 -10 5 -19 10 -19 6 0 10 -6 10 -12 0 -15 44 -103 61 -124 6 -8 9 -14
5 -14 -3 0 6 -20 20 -45 13 -25 21 -45 17 -45 -4 0 -3 -4 2 -8 14 -10 85 -150
85 -167 0 -8 5 -15 10 -15 6 0 10 -9 10 -20 0 -11 5 -20 11 -20 5 0 7 -4 4
-10 -3 -5 -3 -10 2 -10 7 0 18 -20 47 -90 5 -14 16 -33 24 -42 9 -10 12 -18 8
-18 -4 0 1 -12 12 -27 11 -16 21 -32 22 -38 9 -35 23 -65 32 -65 5 0 6 -4 3
-10 -3 -5 -2 -10 3 -10 5 0 14 -18 21 -40 6 -22 16 -40 21 -40 6 0 10 -9 10
-19 0 -11 5 -23 10 -26 6 -4 8 -11 5 -16 -4 -5 -2 -9 4 -9 5 0 17 -20 27 -45
9 -25 21 -45 25 -45 5 0 8 -3 7 -7 -4 -14 13 -53 23 -53 5 0 9 -7 9 -15 0 -20
29 -78 44 -87 6 -4 8 -8 4 -8 -4 0 36 -87 89 -192 53 -106 97 -195 98 -198 1
-3 28 -57 60 -120 32 -63 59 -117 60 -120 1 -3 16 -34 35 -70 19 -36 33 -68
32 -72 -1 -5 3 -8 8 -8 5 0 9 -3 8 -7 -2 -8 102 -223 112 -233 9 -9 44 -85 42
-92 -1 -5 2 -8 7 -8 8 0 17 -21 19 -44 0 -5 4 -12 9 -15 4 -3 37 -64 73 -134
35 -70 67 -130 72 -133 4 -3 8 -14 8 -24 0 -10 3 -20 8 -22 4 -1 18 -25 31
-53 14 -27 32 -58 40 -67 8 -10 11 -18 8 -18 -4 0 7 -23 23 -50 17 -28 30 -53
30 -56 0 -2 11 -21 24 -42 12 -20 23 -39 22 -42 -1 -12 48 -69 56 -64 4 3 8
-1 8 -8 0 -9 3 -9 10 2 5 8 10 11 10 5 0 -7 142 -8 415 -5 l415 5 16 30 c48
91 94 186 93 191 0 4 3 10 8 13 9 6 63 115 64 128 0 5 6 15 13 23 7 8 33 56
57 105 24 50 48 93 52 96 5 3 8 9 8 13 -1 10 83 181 92 184 4 2 7 10 7 17 0 8
7 21 16 29 8 9 13 16 10 16 -8 0 66 143 79 152 5 4 6 8 1 8 -5 0 -3 7 4 15 7
8 9 15 6 15 -4 0 0 7 8 16 9 8 16 22 16 30 0 8 5 14 11 14 5 0 8 4 4 9 -3 5 2
16 11 25 8 9 16 25 17 36 1 11 7 22 15 25 8 3 12 12 9 19 -3 8 -2 16 2 18 10
4 153 284 151 294 -1 4 2 10 7 13 5 3 24 38 43 76 19 39 39 73 45 77 5 4 7 8
2 8 -6 0 40 97 53 110 3 3 41 77 84 165 43 88 83 163 88 166 5 3 9 9 8 13 -4
12 22 66 31 66 5 0 9 5 9 11 0 11 48 111 107 222 12 23 22 48 22 55 1 6 5 12
9 12 5 0 15 18 22 40 7 22 16 40 20 40 3 0 17 25 29 55 13 30 27 55 33 55 5 0
7 4 3 9 -3 5 2 17 11 25 8 9 13 16 10 16 -6 0 63 139 74 150 3 3 6 12 8 20 2
8 8 17 13 18 5 2 7 8 3 13 -3 5 0 9 6 9 6 0 8 5 5 10 -3 6 -1 10 5 10 6 0 9 4
5 9 -3 5 0 15 7 23 13 13 57 101 59 116 0 4 6 14 13 22 7 8 18 30 26 48 7 17
17 32 23 32 6 0 8 3 4 6 -5 5 57 134 89 185 5 8 9 20 11 28 1 8 6 17 11 20 10
6 22 39 21 55 0 5 5 12 13 17 7 5 13 12 13 16 1 4 16 37 35 73 39 75 59 118
59 127 -1 3 3 9 8 12 10 7 84 158 83 167 -1 4 3 10 8 13 5 3 24 38 43 76 19
39 38 73 42 76 5 3 8 9 8 13 -1 3 24 57 56 119 31 61 81 162 112 222 30 61 58
112 63 113 4 2 8 9 8 15 0 15 43 101 53 105 4 2 7 10 7 18 0 7 10 30 22 51 39
69 48 88 48 101 0 6 4 12 9 12 8 0 24 37 22 53 -1 4 4 7 10 7 5 0 7 5 4 10 -3
6 -2 10 3 10 8 0 35 58 32 68 -1 2 7 10 17 19 10 8 11 11 3 7 -13 -6 -13 -5 0
12 9 10 22 31 29 46 13 26 17 27 113 30 54 2 103 -1 109 -7 6 -6 9 -6 9 0 0 6
164 10 428 10 242 -1 432 3 439 8 8 6 13 6 13 0 0 -10 41 -10 58 1 7 4 12 2
12 -4 0 -8 6 -8 20 0 15 8 20 8 20 -2 0 -9 3 -9 12 0 7 7 17 8 30 1 10 -5 18
-6 18 -2 0 4 52 9 115 9 144 2 157 5 174 46 8 18 22 44 33 57 10 13 15 27 12
32 -3 5 -1 9 4 9 5 0 17 20 28 45 10 25 22 45 26 45 4 0 7 3 6 8 -1 4 16 43
37 87 22 44 38 83 37 88 -1 4 2 7 8 7 5 0 10 6 10 13 0 7 9 29 20 50 11 20 20
44 20 52 0 8 5 15 11 15 5 0 7 5 4 10 -3 6 -2 10 3 10 5 0 9 6 10 13 0 6 4 22
7 35 6 18 3 22 -16 24 -27 2 -52 5 -59 8 -3 1 -41 3 -85 6 -44 2 -86 6 -92 9
-7 2 -13 -1 -13 -8 0 -7 -3 -8 -8 -2 -4 6 -47 10 -97 10 -49 0 -100 3 -112 7
-12 4 -25 3 -28 -1 -6 -10 -31 -9 -41 2 -4 3 -14 2 -24 -3 -10 -5 -20 -6 -24
-3 -8 8 -218 11 -959 16 -290 2 -530 7 -533 10 -4 3 -14 3 -23 -2 -9 -4 -42
-7 -74 -6 l-58 2 -25 -48 c-13 -27 -24 -52 -23 -55 0 -4 -3 -10 -8 -13 -4 -3
-30 -49 -56 -101 -27 -52 -76 -149 -109 -215 -34 -66 -63 -126 -64 -134 -2 -8
-7 -17 -11 -20 -5 -3 -42 -71 -82 -151 -40 -80 -77 -149 -82 -154 -5 -6 -9
-18 -9 -28 0 -10 -5 -18 -11 -18 -5 0 -8 -4 -4 -9 3 -6 -3 -14 -12 -20 -10 -6
-15 -11 -11 -11 4 0 -6 -24 -22 -54 -16 -29 -27 -55 -25 -58 3 -3 -1 -11 -10
-18 -8 -7 -15 -18 -15 -26 0 -7 -6 -19 -12 -26 -7 -7 -33 -56 -58 -108 -25
-52 -49 -99 -53 -105 -7 -9 -58 -108 -160 -310 -16 -33 -29 -62 -28 -64 2 -2
-1 -7 -6 -10 -5 -3 -25 -37 -43 -76 -19 -38 -37 -72 -42 -73 -4 -2 -6 -7 -3
-12 3 -5 -2 -15 -11 -24 -8 -9 -16 -25 -17 -36 -1 -11 -7 -22 -15 -25 -7 -3
-10 -9 -7 -15 3 -5 1 -10 -6 -10 -7 0 -9 -3 -6 -7 4 -3 0 -15 -10 -25 -9 -10
-13 -18 -10 -18 4 0 -6 -21 -21 -47 -15 -27 -36 -67 -46 -90 -11 -24 -24 -43
-29 -43 -6 0 -8 -3 -5 -6 6 -5 -72 -162 -129 -261 -13 -24 -21 -43 -17 -43 3
0 2 -6 -4 -12 -22 -28 -101 -186 -95 -192 4 -3 2 -6 -3 -6 -5 0 -18 -20 -29
-45 -11 -25 -23 -45 -26 -45 -4 0 -10 -12 -14 -27 -3 -15 -14 -33 -23 -41 -11
-9 -12 -11 -2 -6 11 6 10 2 -2 -13 -10 -11 -18 -27 -18 -35 0 -9 -4 -18 -8
-20 -5 -1 -24 -34 -42 -73 -18 -38 -38 -77 -45 -85 -6 -8 -18 -31 -25 -50 -8
-19 -24 -52 -37 -72 -13 -21 -20 -38 -17 -38 4 0 0 -8 -9 -18 -10 -10 -14 -22
-10 -25 3 -4 1 -7 -6 -7 -7 0 -10 -4 -7 -9 4 -5 3 -11 -2 -13 -10 -4 -115
-214 -112 -224 1 -4 -5 -11 -12 -15 -8 -4 -20 -26 -28 -49 -7 -22 -17 -40 -22
-40 -4 0 -8 -7 -8 -15 0 -8 -5 -15 -12 -15 -6 0 -9 -3 -5 -6 6 -7 -73 -167
-85 -172 -5 -2 -8 -10 -8 -18 0 -17 -41 -97 -53 -102 -4 -2 -5 -7 -2 -12 3 -5
-1 -14 -8 -22 -15 -15 -31 -49 -29 -60 1 -5 -3 -8 -9 -8 -5 0 -8 -4 -4 -9 3
-5 1 -13 -5 -16 -6 -4 -18 -24 -27 -46 -8 -21 -19 -39 -24 -39 -5 0 -9 -3 -8
-7 2 -16 -14 -53 -23 -53 -5 0 -7 -4 -3 -9 3 -5 -2 -16 -10 -25 -9 -8 -15 -17
-14 -18 1 -4 -25 -62 -31 -68 -5 -5 -33 -61 -34 -70 -1 -3 -5 -11 -10 -18 -23
-37 -73 -142 -67 -142 3 0 1 -4 -5 -8 -6 -4 -33 -51 -59 -104 -26 -54 -52 -98
-58 -98 -6 0 -7 -3 -4 -6 3 -4 1 -16 -5 -28 -7 -11 -11 -24 -10 -28 1 -5 -2
-8 -7 -8 -7 0 -19 -28 -19 -47 0 -3 -4 -9 -9 -12 -4 -3 -26 -41 -48 -85 -21
-43 -41 -72 -44 -65 -2 8 -7 16 -10 19 -3 3 -24 43 -46 90 -22 47 -44 88 -48
91 -5 3 -8 9 -8 13 1 10 -52 121 -62 127 -5 3 -8 9 -7 13 2 7 -18 49 -176 369
-57 114 -101 207 -97 207 3 0 0 7 -7 15 -15 18 -78 146 -78 159 0 5 -4 12 -9
15 -5 3 -24 40 -43 81 -18 41 -37 77 -42 78 -4 2 -6 8 -2 13 3 5 0 9 -5 9 -6
0 -10 3 -9 8 1 4 -31 75 -72 157 -41 83 -73 152 -73 155 1 3 -4 12 -11 20 -6
8 -23 40 -36 70 -14 30 -29 58 -33 61 -5 3 -8 9 -8 13 1 8 -41 100 -50 106 -7
6 -23 53 -20 59 2 2 -1 7 -6 10 -11 8 -77 144 -75 154 1 4 -3 7 -9 7 -5 0 -7
5 -4 10 3 6 2 10 -3 10 -9 0 -20 26 -18 41 1 4 -7 16 -17 26 -9 11 -14 23 -10
26 3 4 1 7 -5 7 -7 0 -11 3 -10 8 1 4 -6 23 -17 42 -11 19 -20 37 -21 40 -1 3
-5 15 -9 28 -4 12 -11 22 -16 22 -5 0 -9 5 -9 12 0 7 -28 68 -62 137 -34 70
-63 128 -63 131 -1 3 -47 96 -102 207 -56 111 -98 204 -95 207 3 3 0 6 -7 6
-7 0 -10 4 -7 9 4 5 3 11 -1 13 -12 5 -43 64 -43 82 0 9 -4 16 -9 16 -8 0 -24
37 -22 53 1 4 -4 7 -10 7 -5 0 -7 5 -4 10 3 6 2 10 -2 10 -8 0 -37 63 -31 66
2 1 -5 10 -14 20 -9 11 -17 21 -18 24 -6 32 -14 50 -22 50 -5 0 -6 5 -3 10 3
6 1 10 -4 10 -6 0 -10 3 -9 8 2 11 -42 106 -53 113 -6 3 -10 8 -10 10 2 15
-13 49 -22 49 -6 0 -7 3 -4 7 4 3 2 12 -4 20 -6 7 -8 13 -3 13 5 0 4 4 -2 8
-11 8 -54 96 -54 112 0 5 -4 10 -8 10 -8 0 -36 60 -33 73 0 4 -3 7 -9 7 -5 0
-10 5 -10 12 0 15 -62 141 -73 149 -5 3 -9 10 -9 15 0 14 -41 98 -51 105 -5 3
-8 9 -7 13 1 4 -24 60 -56 124 -32 64 -57 120 -56 125 1 4 -3 7 -10 7 -6 0 -8
3 -5 7 4 3 0 15 -10 25 -9 10 -13 18 -9 18 4 0 -2 13 -13 29 -11 15 -18 31
-14 35 3 3 1 6 -5 6 -7 0 -11 3 -11 8 3 13 -25 72 -34 72 -4 0 -5 5 -2 10 3 6
1 10 -4 10 -6 0 -10 3 -10 8 3 14 -23 72 -32 72 -5 0 -9 5 -9 12 0 16 -52 122
-65 130 -5 4 -7 8 -4 8 4 0 -23 60 -60 133 l-66 132 -40 1 c-23 0 -46 4 -53 8
-7 4 -12 2 -12 -4 0 -6 -5 -8 -10 -5 -6 4 -77 8 -158 9 -81 1 -153 6 -160 10
-7 4 -12 3 -12 -1 0 -5 -27 -8 -60 -8 -33 0 -60 3 -60 6 0 4 -16 3 -35 -1 -19
-4 -35 -4 -35 0 0 5 -13 5 -29 0 -19 -5 -33 -4 -40 3 -7 7 -11 7 -11 1 0 -7
-19 -8 -50 -4 -28 4 -53 3 -56 -2 -3 -5 -10 -5 -16 -1 -15 9 -71 8 -86 -1 -7
-4 -12 -2 -12 4 0 7 -6 8 -16 2 -8 -5 -36 -6 -60 -2 -25 4 -47 3 -50 -2 -3 -4
-10 -5 -16 -1 -15 9 -71 8 -86 -1 -7 -4 -12 -2 -12 4 0 6 -5 8 -10 5 -13 -8
-159 -10 -166 -2 -3 3 -18 2 -33 -3 -15 -4 -35 -3 -44 2 -10 5 -17 5 -17 1 0
-9 -124 -7 -147 1 -6 3 -14 2 -17 -1z"/>
</g>
</svg>
